<svg xmlns="http://www.w3.org/2000/svg" width="24" height="24" viewBox="0 0 96 96">
  <path fill="#0097dc" d="M22.5 0C10.1 0 0 10.1 0 22.5v72.8c0 .4.3.7.8.7h72.8C85.9 96 96 85.9 96 73.5V.8c0-.5-.3-.8-.8-.8H22.5z"/>
  <path fill="#fff" d="M19.4 53.5h19.5c5.7 0 10.3-4.6 10.3-10.3 0-.4-.3-.7-.7-.7H29c-5.7 0-10.3 4.6-10.3 10.3 0 .4.3.7.7.7zm0-22.3H67c5.7 0 10.3-4.6 10.3-10.3 0-.4-.3-.7-.7-.7H29c-5.7 0-10.3 4.6-10.3 10.3 0 .4.3.7.7.7zm57.2 33.6H29c-5.7 0-10.3 4.6-10.3 10.3 0 .4.3.7.7.7H67c5.7 0 10.3-4.6 10.3-10.3 0-.4-.3-.7-.7-.7z"/>
</svg>
